<svg width="999.421875" height="976.307129" viewBox="0 0 999.422 976.307" fill="none" xmlns="http://www.w3.org/2000/svg" xmlns:xlink="http://www.w3.org/1999/xlink">
	<desc>
			Created with Pixso.
	</desc>
	<defs/>
	<path id="Ellipse 2" d="M760.85 338.04C799.19 399.67 811.16 470.85 799.48 538.04C786.39 613.91 744.56 678.01 687.1 721.07C625.24 767.55 550.86 785.7 479.77 777.74C403.17 769.26 337.15 731.47 291.55 676.86C242.34 618.08 220.99 545.15 225.95 473.93C231.2 397.19 266.27 329.22 319.06 280.57C375.89 228.07 448.08 202.46 519.67 203.13C593.01 203.72 659.54 231.62 709.8 276.96C714.1 280.85 714.18 287.51 710.12 291.66L586.44 417.88C577.62 426.89 589.31 440.94 599.77 433.9L746.48 335.1C751.28 331.87 757.8 333.13 760.85 338.04Z" fill="#FFFFFF" fill-opacity="1.000000" fill-rule="evenodd"/>
	<path id="Ellipse 1" d="M726.77 334.73C765.12 396.35 777.32 467.37 766.01 534.31C753.34 609.9 712.06 673.63 655.15 716.32C593.89 762.39 520.07 780.16 449.41 771.92C373.27 763.13 307.51 725.17 261.96 670.52C212.82 611.7 191.29 538.89 195.91 467.9C200.79 391.4 235.34 323.79 287.58 275.5C343.81 223.41 415.42 198.18 486.56 199.16C559.44 200.08 625.67 228.19 675.8 273.63C680.09 277.51 680.16 284.16 676.12 288.3L553.82 413.6C545.02 422.61 556.71 436.63 567.16 429.59L712.39 331.79C717.19 328.56 723.71 329.82 726.77 334.73Z" fill="#FF6707" fill-opacity="1.000000" fill-rule="evenodd"/>
</svg>
