<svg width="857.000000" height="747.197998" viewBox="0 0 857 747.198" fill="none" xmlns="http://www.w3.org/2000/svg" xmlns:xlink="http://www.w3.org/1999/xlink">
	<desc>
			Created with Pixso.
	</desc>
	<defs/>
	<path id="Убрать верхний слой" d="M748.164 26.2784C744.125 34.5499 741.857 43.8455 741.857 53.6705C741.857 88.1884 769.84 116.171 804.357 116.171C814.229 116.171 823.566 113.882 831.868 109.806C840.827 105.407 856.976 111.491 856.976 121.472L856.976 683.198C856.976 718.544 828.321 747.198 792.976 747.198L64 747.198C28.6533 747.198 0 718.544 0 683.198L0 64C0 28.6538 28.6533 0 64 0L736.125 0C746.273 0 752.618 17.1593 748.164 26.2784Z" clip-rule="evenodd" fill="#FF6707" fill-opacity="1.000000" fill-rule="evenodd"/>
	<ellipse id="Эллипс 2" cx="804.500000" cy="53.500000" rx="52.500000" ry="52.499996" fill="#FFFFFF" fill-opacity="1.000000"/>
	<ellipse id="Эллипс 2" cx="804.500000" cy="53.500000" rx="48.500000" ry="48.499996" stroke="#000000" stroke-opacity="1.000000" stroke-width="8.000000"/>
	<ellipse id="Эллипс 2" cx="804.500000" cy="53.500000" rx="52.500000" ry="52.499996" fill="#FFFFFF" fill-opacity="1.000000"/>
	<ellipse id="Эллипс 2" cx="804.500000" cy="53.500000" rx="48.500000" ry="48.499996" stroke="#000000" stroke-opacity="1.000000" stroke-width="8.000000"/>
	<path id="Стрелка 5" d="M821.52 23.08L811.28 27.56C810.26 28.01 809.1 27.56 808.65 26.53C808.2 25.51 808.65 24.35 809.68 23.9L824.33 17.48C825.36 17.03 826.52 17.48 826.97 18.51L833.38 33.17C833.83 34.19 833.38 35.35 832.35 35.8C831.33 36.25 830.17 35.8 829.72 34.77L825.24 24.54L805.14 75.98L793.75 52.3L776.41 77.97L773.09 75.73L794.33 44.29L804.76 65.96L821.52 23.08Z" fill="#000000" fill-opacity="1.000000" fill-rule="evenodd"/>
</svg>
