<svg width="860.000000" height="749.063721" viewBox="0 0 860 749.064" fill="none" xmlns="http://www.w3.org/2000/svg" xmlns:xlink="http://www.w3.org/1999/xlink">
	<desc>
			Created with Pixso.
	</desc>
	<defs/>
	<path id="Убрать верхний слой" d="M750.783 26.2515C746.742 34.5242 744.474 43.8215 744.474 53.6486C744.474 88.1664 772.456 116.149 806.974 116.149C816.838 116.149 826.168 113.863 834.464 109.794C843.482 105.37 860 111.546 860 121.591L860 685.064C860 720.41 831.346 749.064 796 749.064L64 749.064C28.6538 749.064 0 720.41 0 685.064L0 64C0 28.6538 28.6538 0 64 0L738.752 0C748.897 0 755.235 17.136 750.783 26.2515Z" clip-rule="evenodd" fill="#1A1CE0" fill-opacity="1.000000" fill-rule="evenodd"/>
	<ellipse id="Эллипс 2" cx="806.559082" cy="53.500000" rx="52.559143" ry="52.499996" fill="#FFFFFF" fill-opacity="1.000000"/>
	<ellipse id="Эллипс 2" cx="806.559082" cy="53.500000" rx="48.559143" ry="48.499996" stroke="#000000" stroke-opacity="1.000000" stroke-width="8.000000"/>
	<line id="Линия 5" x1="797.601074" y1="25.359985" x2="798.635254" y2="81.639893" stroke="#000000" stroke-opacity="1.000000" stroke-width="4.000000"/>
	<path id="Линия 6" d="M796.04 27.03C796.04 27.03 809.58 24.77 817.49 28.72C824.21 32.08 824.63 36.27 824.63 39.21C824.63 42.4 825.57 45.57 818.33 50.13C810.84 54.85 797.6 52.99 797.6 52.99" stroke="#000000" stroke-opacity="1.000000" stroke-width="4.000000"/>
	<line id="Линия 7" x1="789.319824" y1="67.048950" x2="813.123535" y2="67.048950" stroke="#000000" stroke-opacity="1.000000" stroke-width="4.000000"/>
</svg>
