<svg width="1500.000000" height="404.782471" viewBox="0 0 1500 404.782" fill="none" xmlns="http://www.w3.org/2000/svg" xmlns:xlink="http://www.w3.org/1999/xlink">
	<desc>
			Created with Pixso.
	</desc>
	<defs/>
	<path id="Subtract" d="M102.836 0L1397.16 0C1453.96 0 1500 46.041 1500 102.836L1500 244.075C1500 254.875 1484.46 260.73 1475.52 254.669C1458.95 243.429 1438.68 236.821 1416.8 236.821C1360.72 236.821 1315.26 280.244 1315.26 333.81C1315.26 351.43 1320.18 367.952 1328.77 382.192C1334.08 390.977 1328.4 404.617 1318.14 404.617L102.836 404.617C46.041 404.617 0 358.576 0 301.781L0 102.836C0 46.041 46.041 0 102.836 0Z" clip-rule="evenodd" fill="#1A1CE0" fill-opacity="1.000000" fill-rule="evenodd"/>
	<circle id="Ellipse 16" cx="1415.891602" cy="329.891357" r="69.861252" stroke="#000000" stroke-opacity="1.000000" stroke-width="10.060019"/>
	<path id="Arrow 4" d="M1442.48 308.39L1389.85 364.25C1388.13 366.07 1385.35 366.16 1383.53 364.44C1381.71 362.72 1381.62 359.94 1383.34 358.12L1435.98 302.26L1411.01 303C1408.51 303.08 1406.48 301.17 1406.41 298.67C1406.33 296.16 1408.24 294.14 1410.75 294.07L1446.5 293C1449 292.93 1451.03 294.84 1451.1 297.34L1452.16 333.09C1452.24 335.6 1450.33 337.62 1447.83 337.69C1445.32 337.77 1443.3 335.86 1443.22 333.36L1442.48 308.39Z" fill="#000000" fill-opacity="1.000000" fill-rule="evenodd"/>
</svg>
