<svg width="700.003906" height="464.119873" viewBox="0 0 700.004 464.12" fill="none" xmlns="http://www.w3.org/2000/svg" xmlns:xlink="http://www.w3.org/1999/xlink">
	<desc>
			Created with Pixso.
	</desc>
	<defs/>
	<path id="Subtract" d="M586.204 0L102.836 0C46.041 0 0 46.041 0 102.836L0 361.284C0 418.079 46.041 464.12 102.836 464.12L543.547 464.12C554.297 464.12 560.235 448.632 554.553 439.507C545.966 425.719 541.005 409.437 541.005 391.998C541.005 342.292 581.3 301.998 631.005 301.998C644.507 301.998 657.314 304.971 668.809 310.298C677.438 314.297 689.039 308.647 689.039 299.135L689.039 102.836C689.039 46.041 642.998 0 586.204 0Z" clip-rule="evenodd" fill="#1A1CE0" fill-opacity="1.000000" fill-rule="evenodd"/>
	<circle id="Ellipse 16" cx="625.003906" cy="387.997070" r="69.969994" stroke="#000000" stroke-opacity="1.000000" stroke-width="10.060019"/>
	<path id="Vector 22" d="M592.23 409.83L625.9 409.83L659.56 409.83L640.47 376.71L640.47 345.99L611.85 345.99L611.85 376.71L592.23 409.83ZM640.47 376.71L611.85 376.71M625.9 409.83L625.9 430.94L609.73 430.94L640.47 430.94" stroke="#000000" stroke-opacity="1.000000" stroke-width="6.706679" stroke-linejoin="round" stroke-linecap="round"/>
	<path id="Vector 23" d="M609.07 345.99C608.57 346.89 593.48 349.35 586 350.46L597.22 373.38L609.07 368.91" stroke="#000000" stroke-opacity="1.000000" stroke-width="6.706679" stroke-linejoin="round" stroke-linecap="round"/>
	<path id="Vector 24" d="M642.1 345.99C642.6 346.89 657.69 349.35 665.17 350.46L653.95 373.38L642.1 368.91" stroke="#000000" stroke-opacity="1.000000" stroke-width="6.706679" stroke-linejoin="round" stroke-linecap="round"/>
</svg>
