<svg width="745.000000" height="464.119873" viewBox="0 0 745 464.12" fill="none" xmlns="http://www.w3.org/2000/svg" xmlns:xlink="http://www.w3.org/1999/xlink">
	<desc>
			Created with Pixso.
	</desc>
	<defs/>
	<path id="Subtract" d="M102.836 0L641.895 0C698.689 0 744.731 46.041 744.731 102.836L744.731 293.184C744.731 304.218 728.031 310.321 718.761 304.335C704.711 295.265 687.973 290 670.004 290C620.298 290 580.004 330.286 580.004 379.981C580.004 396.623 584.522 412.209 592.4 425.581C598.702 436.279 589.572 464.12 577.156 464.12L102.836 464.12C46.041 464.12 0 418.079 0 361.284L0 102.836C0 46.041 46.041 0 102.836 0Z" clip-rule="evenodd" fill="#FF6707" fill-opacity="1.000000" fill-rule="evenodd"/>
	<circle id="Ellipse 16" cx="670.000000" cy="380.000000" r="69.969994" stroke="#000000" stroke-opacity="1.000000" stroke-width="10.060019"/>
	<path id="Vector 22" d="M637.23 404.83L670.89 404.83L704.56 404.83L685.47 371.71L685.47 341L656.84 341L656.84 371.71L637.23 404.83ZM685.47 371.71L656.84 371.71M670.89 404.83L670.89 425.95L654.72 425.95L685.47 425.95" stroke="#000000" stroke-opacity="1.000000" stroke-width="6.706679" stroke-linejoin="round" stroke-linecap="round"/>
	<path id="Vector 23" d="M654.06 341C653.56 341.89 638.48 344.35 631 345.47L642.22 368.38L654.06 363.91" stroke="#000000" stroke-opacity="1.000000" stroke-width="6.706679" stroke-linejoin="round" stroke-linecap="round"/>
	<path id="Vector 24" d="M687.1 341C687.6 341.89 702.69 344.35 710.17 345.47L698.95 368.38L687.1 363.91" stroke="#000000" stroke-opacity="1.000000" stroke-width="6.706679" stroke-linejoin="round" stroke-linecap="round"/>
</svg>
