<svg width="974.000000" height="694.000000" viewBox="0 0 974 694" fill="none" xmlns="http://www.w3.org/2000/svg" xmlns:xlink="http://www.w3.org/1999/xlink">
	<desc>
			Created with Pixso.
	</desc>
	<defs/>
	<path id="Subtract" d="M835.699 33.6801C832.67 41.0212 831 49.0655 830.999 57.5C830.999 92.0178 858.981 120 893.499 120C905.641 120 916.973 116.538 926.563 110.548C935.289 105.098 947.89 105.76 952.469 114.973C966.25 142.693 974 173.942 974 207L974 652.434C974 675.39 955.39 694 932.434 694L309.987 694C287.031 694 268.421 675.39 268.421 652.434L268.421 41.5663C268.421 18.6099 287.031 0 309.987 0L767 0C787.877 0 808.032 3.09064 827.033 8.83929C836.892 11.822 839.627 24.1585 835.699 33.6801Z" clip-rule="evenodd" fill="#1A1CE0" fill-opacity="1.000000" fill-rule="evenodd"/>
	<path id="Rectangle 20" d="M207 0L293.37 0C316.33 0 334.94 18.6 334.94 41.56L334.94 652.43C334.94 675.39 316.33 694 293.37 694L41.56 694C18.6 694 0 675.39 0 652.43L0 207C0 92.67 92.67 0 207 0Z" fill="#1A1CE0" fill-opacity="1.000000" fill-rule="nonzero"/>
	<circle id="Ellipse 8" cx="893.500000" cy="57.500000" r="52.500000" fill="#FFFFFF" fill-opacity="1.000000"/>
	<circle id="Ellipse 8" cx="893.500000" cy="57.500000" r="50.000000" stroke="#000000" stroke-opacity="1.000000" stroke-width="5.000000"/>
	<path id="Vector 7" d="M869 54.99L883 79.99" stroke="#000000" stroke-opacity="1.000000" stroke-width="4.000000" stroke-linecap="round"/>
	<path id="Vector 8" d="M882.82 80.39C883.93 78.22 910.75 49.02 924.02 34.68" stroke="#000000" stroke-opacity="1.000000" stroke-width="4.000000" stroke-linecap="round"/>
</svg>
