<svg width="628.000000" height="682.000000" viewBox="0 0 628 682" fill="none" xmlns="http://www.w3.org/2000/svg" xmlns:xlink="http://www.w3.org/1999/xlink">
	<desc>
			Created with Pixso.
	</desc>
	<defs/>
	<path id="Subtract - трабд" d="M522.37 19.8647C513.997 30.498 509.001 43.9156 509.001 58.5C509.001 93.0178 536.983 121 571.501 121C585.364 121 598.172 116.487 608.538 108.849C615.669 103.595 627.536 106.158 627.898 115.008C627.966 116.664 628 118.328 628 120L628 612C628 650.66 596.66 682 558 682L70 682C31.3398 682 0 650.66 0 612L0 70C0 31.3401 31.3398 0 70 0L508 0C510.971 0 513.917 0.107971 516.834 0.320251C525.668 0.963074 527.849 12.9061 522.37 19.8647Z" clip-rule="evenodd" fill="#FF6707" fill-opacity="1.000000" fill-rule="evenodd"/>
	<circle id="Ellipse 6" cx="571.500000" cy="57.500000" r="52.500000" fill="#FFFFFF" fill-opacity="1.000000"/>
	<circle id="Ellipse 6" cx="571.500000" cy="57.500000" r="50.000000" stroke="#000000" stroke-opacity="1.000000" stroke-width="5.000000"/>
	<path id="Vector 3" d="M548 32L592 77" stroke="#000000" stroke-opacity="1.000000" stroke-width="4.000000" stroke-linecap="round"/>
	<path id="Vector 4" d="M594 33L548 78" stroke="#000000" stroke-opacity="1.000000" stroke-width="4.000000" stroke-linecap="round"/>
</svg>
