<svg width="35.000000" height="35.362305" viewBox="0 0 35 35.3623" fill="none" xmlns="http://www.w3.org/2000/svg" xmlns:xlink="http://www.w3.org/1999/xlink">
	<desc>
			Created with Pixso.
	</desc>
	<defs/>
	<path id="path" d="M32.02 0C31.51 0.02 31.05 0.19 30.64 0.37C30.26 0.53 28.91 1.17 26.76 2.18C24.6 3.2 21.75 4.54 18.71 5.97C12.62 8.84 5.79 12.07 2.29 13.73C2.16 13.78 1.68 13.95 1.14 14.41C0.6 14.87 0 15.88 0 16.98C0 17.87 0.39 18.77 0.87 19.29C1.34 19.81 1.83 20.05 2.23 20.23C3.6 20.84 7.67 22.66 8.64 23.1C8.99 24.26 10.46 29.21 10.82 30.46C11.06 31.34 11.3 31.91 11.64 32.39C11.81 32.63 12.01 32.85 12.25 33.02C12.35 33.08 12.45 33.14 12.56 33.18C12.61 33.2 12.74 33.25 12.81 33.27C13.04 33.35 13.29 33.41 13.51 33.41C14.46 33.41 15.04 32.83 15.04 32.83L19.19 28.9L24.22 34.12C24.31 34.26 25.03 35.36 26.7 35.36C27.69 35.36 28.48 34.81 28.98 34.23C29.48 33.65 29.8 33.06 29.94 32.25C30.05 31.6 34.87 4.48 34.87 4.48C35.02 3.73 35.05 3.05 34.87 2.31C34.7 1.57 34.22 0.84 33.64 0.47C33.07 0.09 32.52 -0.03 32.02 0ZM31.33 4.3C31.14 5.37 26.82 29.68 26.56 31.2L19.29 23.66L14.38 28.32L15.74 22.35C15.74 22.35 25.12 11.7 25.69 11.08C26.14 10.58 26.24 10.41 26.24 10.24C26.24 10.01 26.13 9.84 25.89 9.84C25.67 9.84 25.37 10.08 25.22 10.19C23.21 11.59 14.69 17.04 10.5 19.71C10.25 19.6 6.46 17.89 4.42 16.98C8.05 15.26 14.27 12.33 20.07 9.59C23.11 8.16 25.96 6.81 28.11 5.8C29.93 4.95 30.87 4.5 31.33 4.3Z" fill="#FFFFFF" fill-opacity="1.000000" fill-rule="nonzero"/>
</svg>
