<svg width="32.000000" height="33.341797" viewBox="0 0 32 33.3418" fill="none" xmlns="http://www.w3.org/2000/svg" xmlns:xlink="http://www.w3.org/1999/xlink">
	<desc>
			Created with Pixso.
	</desc>
	<defs/>
	<path id="path" d="M16.02 0C7.2 0 0.03 7.46 0.03 16.64C0.03 19.57 0.77 22.44 2.16 24.96L0 33.34L8.37 31.28C10.7 32.6 13.33 33.3 16.01 33.3C24.81 33.3 31.99 25.83 32 16.66C32 12.21 30.34 8.02 27.32 4.88C24.3 1.73 20.29 0 16.02 0ZM16.01 3.33C19.43 3.33 22.64 4.72 25.06 7.23C27.47 9.75 28.8 13.1 28.79 16.65C28.79 24 23.06 29.97 16.01 29.97C13.88 29.96 11.76 29.41 9.9 28.35L8.82 27.74L7.63 28.03L4.48 28.8L5.25 25.83L5.6 24.49L4.94 23.29C3.82 21.28 3.23 18.98 3.23 16.64C3.23 9.3 8.97 3.33 16.01 3.33ZM10.36 8.96C10.09 8.96 9.66 9.06 9.29 9.48C8.93 9.89 7.89 10.9 7.89 12.94C7.89 14.99 9.32 16.97 9.52 17.25C9.72 17.53 12.29 21.86 16.35 23.53C19.72 24.91 20.41 24.64 21.14 24.57C21.87 24.5 23.5 23.56 23.83 22.59C24.17 21.62 24.17 20.78 24.07 20.61C23.97 20.44 23.7 20.34 23.3 20.13C22.91 19.92 20.94 18.91 20.58 18.78C20.21 18.64 19.94 18.57 19.67 18.98C19.41 19.4 18.65 20.34 18.41 20.61C18.18 20.89 17.95 20.93 17.55 20.72C17.15 20.51 15.86 20.07 14.33 18.65C13.15 17.55 12.35 16.19 12.11 15.77C11.88 15.36 12.09 15.13 12.29 14.92C12.47 14.74 12.69 14.44 12.89 14.19C13.08 13.95 13.15 13.78 13.29 13.5C13.42 13.22 13.35 12.98 13.25 12.77C13.15 12.56 12.38 10.51 12.02 9.68C11.72 8.99 11.41 8.98 11.12 8.97C10.89 8.95 10.62 8.96 10.36 8.96Z" fill="#FFFFFF" fill-opacity="1.000000" fill-rule="nonzero"/>
</svg>
