<svg width="102.000000" height="254.000000" viewBox="0 0 102 254" fill="none" xmlns="http://www.w3.org/2000/svg" xmlns:xlink="http://www.w3.org/1999/xlink">
	<desc>
			Created with Pixso.
	</desc>
	<defs>
		<linearGradient x1="10.952827" y1="134.249557" x2="11.569733" y2="24.619873" id="paint_linear_51_56_0" gradientUnits="userSpaceOnUse">
			<stop stop-color="#FFFFFF"/>
			<stop offset="1.000000" stop-color="#FF6707"/>
		</linearGradient>
		<linearGradient x1="53.502457" y1="0.000000" x2="53.502457" y2="254.254700" id="paint_linear_51_57_0" gradientUnits="userSpaceOnUse">
			<stop stop-color="#FF6707"/>
			<stop offset="1.000000" stop-color="#1A1CE0"/>
		</linearGradient>
	</defs>
	<path id="Vector" d="M50.1 243.27C47.09 247.94 38.9 247.94 35.89 243.27L0.93 189C-1.88 184.63 1.99 179.38 8.03 179.38L15.8 179.38L15.8 28.29C15.8 24.26 19.79 21 24.72 21L62.17 21C67.09 21 71.08 24.26 71.08 28.29L71.08 179.38L77.96 179.38C84 179.38 87.87 184.63 85.06 189L50.1 243.27Z" fill="url(#paint_linear_51_56_0)" fill-opacity="1.000000" fill-rule="evenodd"/>
	<path id="Vector" d="M61.92 250.05C58.56 255.31 49.43 255.31 46.07 250.05L7.04 189C3.9 184.09 8.22 178.18 14.97 178.18L23.64 178.18L23.64 8.2C23.64 3.67 28.09 0 33.59 0L75.39 0C80.89 0 85.35 3.67 85.35 8.2L85.35 178.18L93.02 178.18C99.77 178.18 104.09 184.09 100.95 189L61.92 250.05Z" fill="url(#paint_linear_51_57_0)" fill-opacity="1.000000" fill-rule="evenodd"/>
</svg>
